<mxfile host="app.diagrams.net" modified="2024-05-13T03:15:16.894Z" agent="Mozilla/5.0 (Windows NT 10.0; Win64; x64) AppleWebKit/537.36 (KHTML, like Gecko) Chrome/124.0.0.0 Safari/537.36" etag="EGqNDaJEPBjF6bxFe1Yu" version="24.4.0" type="google">
  <diagram name="Page-1" id="86zFsOohd6gGiGKe7dfL">
    <mxGraphModel grid="1" page="1" gridSize="10" guides="1" tooltips="1" connect="1" arrows="1" fold="1" pageScale="1" pageWidth="850" pageHeight="1100" math="0" shadow="0">
      <root>
        <mxCell id="0" />
        <mxCell id="1" parent="0" />
        <mxCell id="28am5zc72-CxDdYoVZ5G-27" value="&lt;span style=&quot;font-size: 20px;&quot;&gt;&lt;b&gt;&lt;i&gt;ejercicio_08_ToDoItem&lt;/i&gt;&lt;/b&gt;&lt;/span&gt;" style="text;html=1;align=center;verticalAlign=middle;resizable=0;points=[];autosize=1;strokeColor=none;fillColor=none;" vertex="1" parent="1">
          <mxGeometry x="1840" y="-1200" width="240" height="40" as="geometry" />
        </mxCell>
        <mxCell id="rkeLOa6LP-PtmjB0b2Ty-14" style="edgeStyle=orthogonalEdgeStyle;rounded=0;orthogonalLoop=1;jettySize=auto;html=1;entryX=0.25;entryY=0;entryDx=0;entryDy=0;endSize=12;startSize=12;" edge="1" parent="1" target="rkeLOa6LP-PtmjB0b2Ty-31">
          <mxGeometry relative="1" as="geometry">
            <mxPoint x="1480" y="-1740" as="sourcePoint" />
            <mxPoint x="1480.0000000000002" y="-1680" as="targetPoint" />
          </mxGeometry>
        </mxCell>
        <mxCell id="rkeLOa6LP-PtmjB0b2Ty-15" value="ToDoItem&#xa;" style="swimlane;fontStyle=0;align=center;verticalAlign=top;childLayout=stackLayout;horizontal=1;startSize=30;horizontalStack=0;resizeParent=1;resizeLast=0;collapsible=1;marginBottom=0;rounded=0;shadow=0;strokeWidth=1;fillColor=#fff2cc;strokeColor=#d6b656;" vertex="1" parent="1">
          <mxGeometry x="1357.5" y="-2040" width="365" height="300" as="geometry">
            <mxRectangle x="110" y="-20" width="160" height="26" as="alternateBounds" />
          </mxGeometry>
        </mxCell>
        <mxCell id="rkeLOa6LP-PtmjB0b2Ty-16" value="- name: String" style="text;align=left;verticalAlign=top;spacingLeft=4;spacingRight=4;overflow=hidden;rotatable=0;points=[[0,0.5],[1,0.5]];portConstraint=eastwest;rounded=0;shadow=0;html=0;" vertex="1" parent="rkeLOa6LP-PtmjB0b2Ty-15">
          <mxGeometry y="30" width="365" height="22" as="geometry" />
        </mxCell>
        <mxCell id="rkeLOa6LP-PtmjB0b2Ty-17" value="- state: State" style="text;align=left;verticalAlign=top;spacingLeft=4;spacingRight=4;overflow=hidden;rotatable=0;points=[[0,0.5],[1,0.5]];portConstraint=eastwest;rounded=0;shadow=0;html=0;" vertex="1" parent="rkeLOa6LP-PtmjB0b2Ty-15">
          <mxGeometry y="52" width="365" height="22" as="geometry" />
        </mxCell>
        <mxCell id="rkeLOa6LP-PtmjB0b2Ty-18" value="- comments: List&lt;String&gt;" style="text;align=left;verticalAlign=top;spacingLeft=4;spacingRight=4;overflow=hidden;rotatable=0;points=[[0,0.5],[1,0.5]];portConstraint=eastwest;rounded=0;shadow=0;html=0;" vertex="1" parent="rkeLOa6LP-PtmjB0b2Ty-15">
          <mxGeometry y="74" width="365" height="22" as="geometry" />
        </mxCell>
        <mxCell id="rkeLOa6LP-PtmjB0b2Ty-19" value="- startDate: Date" style="text;align=left;verticalAlign=top;spacingLeft=4;spacingRight=4;overflow=hidden;rotatable=0;points=[[0,0.5],[1,0.5]];portConstraint=eastwest;rounded=0;shadow=0;html=0;" vertex="1" parent="rkeLOa6LP-PtmjB0b2Ty-15">
          <mxGeometry y="96" width="365" height="22" as="geometry" />
        </mxCell>
        <mxCell id="rkeLOa6LP-PtmjB0b2Ty-20" value="- endDate: Date" style="text;align=left;verticalAlign=top;spacingLeft=4;spacingRight=4;overflow=hidden;rotatable=0;points=[[0,0.5],[1,0.5]];portConstraint=eastwest;rounded=0;shadow=0;html=0;" vertex="1" parent="rkeLOa6LP-PtmjB0b2Ty-15">
          <mxGeometry y="118" width="365" height="22" as="geometry" />
        </mxCell>
        <mxCell id="rkeLOa6LP-PtmjB0b2Ty-21" value="" style="line;html=1;strokeWidth=1;align=left;verticalAlign=middle;spacingTop=-1;spacingLeft=3;spacingRight=3;rotatable=0;labelPosition=right;points=[];portConstraint=eastwest;" vertex="1" parent="rkeLOa6LP-PtmjB0b2Ty-15">
          <mxGeometry y="140" width="365" height="8" as="geometry" />
        </mxCell>
        <mxCell id="rkeLOa6LP-PtmjB0b2Ty-22" value="+ start()" style="text;align=left;verticalAlign=top;spacingLeft=4;spacingRight=4;overflow=hidden;rotatable=0;points=[[0,0.5],[1,0.5]];portConstraint=eastwest;rounded=0;shadow=0;html=0;" vertex="1" parent="rkeLOa6LP-PtmjB0b2Ty-15">
          <mxGeometry y="148" width="365" height="22" as="geometry" />
        </mxCell>
        <mxCell id="rkeLOa6LP-PtmjB0b2Ty-23" value="+ togglePause()" style="text;align=left;verticalAlign=top;spacingLeft=4;spacingRight=4;overflow=hidden;rotatable=0;points=[[0,0.5],[1,0.5]];portConstraint=eastwest;rounded=0;shadow=0;html=0;" vertex="1" parent="rkeLOa6LP-PtmjB0b2Ty-15">
          <mxGeometry y="170" width="365" height="22" as="geometry" />
        </mxCell>
        <mxCell id="rkeLOa6LP-PtmjB0b2Ty-24" value="+ finish()" style="text;align=left;verticalAlign=top;spacingLeft=4;spacingRight=4;overflow=hidden;rotatable=0;points=[[0,0.5],[1,0.5]];portConstraint=eastwest;rounded=0;shadow=0;html=0;" vertex="1" parent="rkeLOa6LP-PtmjB0b2Ty-15">
          <mxGeometry y="192" width="365" height="22" as="geometry" />
        </mxCell>
        <mxCell id="rkeLOa6LP-PtmjB0b2Ty-25" value="+ workedTime(): Duration" style="text;align=left;verticalAlign=top;spacingLeft=4;spacingRight=4;overflow=hidden;rotatable=0;points=[[0,0.5],[1,0.5]];portConstraint=eastwest;rounded=0;shadow=0;html=0;" vertex="1" parent="rkeLOa6LP-PtmjB0b2Ty-15">
          <mxGeometry y="214" width="365" height="22" as="geometry" />
        </mxCell>
        <mxCell id="rkeLOa6LP-PtmjB0b2Ty-26" value="+ addComment(comment: String)" style="text;align=left;verticalAlign=top;spacingLeft=4;spacingRight=4;overflow=hidden;rotatable=0;points=[[0,0.5],[1,0.5]];portConstraint=eastwest;rounded=0;shadow=0;html=0;" vertex="1" parent="rkeLOa6LP-PtmjB0b2Ty-15">
          <mxGeometry y="236" width="365" height="22" as="geometry" />
        </mxCell>
        <mxCell id="rkeLOa6LP-PtmjB0b2Ty-27" value="1" style="text;html=1;align=center;verticalAlign=middle;whiteSpace=wrap;rounded=0;fontSize=14;" vertex="1" parent="1">
          <mxGeometry x="1480" y="-1710" width="30" height="20" as="geometry" />
        </mxCell>
        <mxCell id="rkeLOa6LP-PtmjB0b2Ty-28" value="state" style="text;html=1;align=center;verticalAlign=middle;whiteSpace=wrap;rounded=0;fontSize=14;" vertex="1" parent="1">
          <mxGeometry x="1445" y="-1710" width="35" height="20" as="geometry" />
        </mxCell>
        <mxCell id="rkeLOa6LP-PtmjB0b2Ty-29" value="&lt;b style=&quot;&quot;&gt;&lt;i&gt;&lt;font style=&quot;font-size: 20px;&quot;&gt;Patron State&lt;/font&gt;&lt;/i&gt;&lt;/b&gt;" style="text;html=1;align=center;verticalAlign=middle;resizable=0;points=[];autosize=1;strokeColor=none;fillColor=none;" vertex="1" parent="1">
          <mxGeometry x="1040" y="-2120" width="140" height="40" as="geometry" />
        </mxCell>
        <mxCell id="rkeLOa6LP-PtmjB0b2Ty-30" style="edgeStyle=orthogonalEdgeStyle;rounded=0;orthogonalLoop=1;jettySize=auto;html=1;endSize=12;startSize=12;" edge="1" parent="1" source="rkeLOa6LP-PtmjB0b2Ty-31">
          <mxGeometry relative="1" as="geometry">
            <mxPoint x="1600" y="-1740" as="targetPoint" />
            <Array as="points">
              <mxPoint x="1600" y="-1720" />
              <mxPoint x="1600" y="-1720" />
            </Array>
          </mxGeometry>
        </mxCell>
        <mxCell id="rkeLOa6LP-PtmjB0b2Ty-31" value="State&#xa;" style="swimlane;fontStyle=0;align=center;verticalAlign=top;childLayout=stackLayout;horizontal=1;startSize=30;horizontalStack=0;resizeParent=1;resizeLast=0;collapsible=1;marginBottom=0;rounded=0;shadow=0;strokeWidth=1;fillColor=#fff2cc;strokeColor=#d6b656;" vertex="1" parent="1">
          <mxGeometry x="1420" y="-1660" width="240" height="180" as="geometry">
            <mxRectangle x="110" y="-20" width="160" height="26" as="alternateBounds" />
          </mxGeometry>
        </mxCell>
        <mxCell id="rkeLOa6LP-PtmjB0b2Ty-32" value="" style="line;html=1;strokeWidth=1;align=left;verticalAlign=middle;spacingTop=-1;spacingLeft=3;spacingRight=3;rotatable=0;labelPosition=right;points=[];portConstraint=eastwest;" vertex="1" parent="rkeLOa6LP-PtmjB0b2Ty-31">
          <mxGeometry y="30" width="240" height="8" as="geometry" />
        </mxCell>
        <mxCell id="rkeLOa6LP-PtmjB0b2Ty-33" value="+ &lt;&lt;abstract&gt;&gt; start()" style="text;align=left;verticalAlign=top;spacingLeft=4;spacingRight=4;overflow=hidden;rotatable=0;points=[[0,0.5],[1,0.5]];portConstraint=eastwest;rounded=0;shadow=0;html=0;" vertex="1" parent="rkeLOa6LP-PtmjB0b2Ty-31">
          <mxGeometry y="38" width="240" height="22" as="geometry" />
        </mxCell>
        <mxCell id="rkeLOa6LP-PtmjB0b2Ty-34" value="+ &lt;&lt;abstract&gt;&gt;  togglePause()" style="text;align=left;verticalAlign=top;spacingLeft=4;spacingRight=4;overflow=hidden;rotatable=0;points=[[0,0.5],[1,0.5]];portConstraint=eastwest;rounded=0;shadow=0;html=0;" vertex="1" parent="rkeLOa6LP-PtmjB0b2Ty-31">
          <mxGeometry y="60" width="240" height="22" as="geometry" />
        </mxCell>
        <mxCell id="rkeLOa6LP-PtmjB0b2Ty-35" value="+ &lt;&lt;abstract&gt;&gt; finish()" style="text;align=left;verticalAlign=top;spacingLeft=4;spacingRight=4;overflow=hidden;rotatable=0;points=[[0,0.5],[1,0.5]];portConstraint=eastwest;rounded=0;shadow=0;html=0;" vertex="1" parent="rkeLOa6LP-PtmjB0b2Ty-31">
          <mxGeometry y="82" width="240" height="22" as="geometry" />
        </mxCell>
        <mxCell id="rkeLOa6LP-PtmjB0b2Ty-36" value="+ workedTime(): Duration" style="text;align=left;verticalAlign=top;spacingLeft=4;spacingRight=4;overflow=hidden;rotatable=0;points=[[0,0.5],[1,0.5]];portConstraint=eastwest;rounded=0;shadow=0;html=0;" vertex="1" parent="rkeLOa6LP-PtmjB0b2Ty-31">
          <mxGeometry y="104" width="240" height="22" as="geometry" />
        </mxCell>
        <mxCell id="rkeLOa6LP-PtmjB0b2Ty-37" value="+ addComment(comment: String)" style="text;align=left;verticalAlign=top;spacingLeft=4;spacingRight=4;overflow=hidden;rotatable=0;points=[[0,0.5],[1,0.5]];portConstraint=eastwest;rounded=0;shadow=0;html=0;" vertex="1" parent="rkeLOa6LP-PtmjB0b2Ty-31">
          <mxGeometry y="126" width="240" height="22" as="geometry" />
        </mxCell>
        <mxCell id="rkeLOa6LP-PtmjB0b2Ty-38" style="edgeStyle=orthogonalEdgeStyle;rounded=0;orthogonalLoop=1;jettySize=auto;html=1;endSize=12;startSize=12;endArrow=block;endFill=0;" edge="1" parent="1" source="rkeLOa6LP-PtmjB0b2Ty-39" target="rkeLOa6LP-PtmjB0b2Ty-31">
          <mxGeometry relative="1" as="geometry">
            <Array as="points">
              <mxPoint x="1180" y="-1440" />
              <mxPoint x="1540" y="-1440" />
            </Array>
          </mxGeometry>
        </mxCell>
        <mxCell id="rkeLOa6LP-PtmjB0b2Ty-39" value="Pending" style="swimlane;fontStyle=0;align=center;verticalAlign=top;childLayout=stackLayout;horizontal=1;startSize=30;horizontalStack=0;resizeParent=1;resizeLast=0;collapsible=1;marginBottom=0;rounded=0;shadow=0;strokeWidth=1;fillColor=#fff2cc;strokeColor=#d6b656;" vertex="1" parent="1">
          <mxGeometry x="1080" y="-1400" width="200" height="160" as="geometry">
            <mxRectangle x="110" y="-20" width="160" height="26" as="alternateBounds" />
          </mxGeometry>
        </mxCell>
        <mxCell id="rkeLOa6LP-PtmjB0b2Ty-40" value="- task: ToDoItem" style="text;align=left;verticalAlign=top;spacingLeft=4;spacingRight=4;overflow=hidden;rotatable=0;points=[[0,0.5],[1,0.5]];portConstraint=eastwest;rounded=0;shadow=0;html=0;" vertex="1" parent="rkeLOa6LP-PtmjB0b2Ty-39">
          <mxGeometry y="30" width="200" height="22" as="geometry" />
        </mxCell>
        <mxCell id="rkeLOa6LP-PtmjB0b2Ty-41" value="" style="line;html=1;strokeWidth=1;align=left;verticalAlign=middle;spacingTop=-1;spacingLeft=3;spacingRight=3;rotatable=0;labelPosition=right;points=[];portConstraint=eastwest;" vertex="1" parent="rkeLOa6LP-PtmjB0b2Ty-39">
          <mxGeometry y="52" width="200" height="8" as="geometry" />
        </mxCell>
        <mxCell id="rkeLOa6LP-PtmjB0b2Ty-42" value="+ start()" style="text;align=left;verticalAlign=top;spacingLeft=4;spacingRight=4;overflow=hidden;rotatable=0;points=[[0,0.5],[1,0.5]];portConstraint=eastwest;rounded=0;shadow=0;html=0;" vertex="1" parent="rkeLOa6LP-PtmjB0b2Ty-39">
          <mxGeometry y="60" width="200" height="22" as="geometry" />
        </mxCell>
        <mxCell id="rkeLOa6LP-PtmjB0b2Ty-43" value="+ togglePause()" style="text;align=left;verticalAlign=top;spacingLeft=4;spacingRight=4;overflow=hidden;rotatable=0;points=[[0,0.5],[1,0.5]];portConstraint=eastwest;rounded=0;shadow=0;html=0;" vertex="1" parent="rkeLOa6LP-PtmjB0b2Ty-39">
          <mxGeometry y="82" width="200" height="22" as="geometry" />
        </mxCell>
        <mxCell id="rkeLOa6LP-PtmjB0b2Ty-44" value="+ workedTime(): Duration" style="text;align=left;verticalAlign=top;spacingLeft=4;spacingRight=4;overflow=hidden;rotatable=0;points=[[0,0.5],[1,0.5]];portConstraint=eastwest;rounded=0;shadow=0;html=0;" vertex="1" parent="rkeLOa6LP-PtmjB0b2Ty-39">
          <mxGeometry y="104" width="200" height="22" as="geometry" />
        </mxCell>
        <mxCell id="rkeLOa6LP-PtmjB0b2Ty-45" style="edgeStyle=orthogonalEdgeStyle;rounded=0;orthogonalLoop=1;jettySize=auto;html=1;endSize=12;startSize=12;endArrow=block;endFill=0;" edge="1" parent="1" source="rkeLOa6LP-PtmjB0b2Ty-46" target="rkeLOa6LP-PtmjB0b2Ty-31">
          <mxGeometry relative="1" as="geometry">
            <Array as="points">
              <mxPoint x="1420" y="-1440" />
              <mxPoint x="1540" y="-1440" />
            </Array>
          </mxGeometry>
        </mxCell>
        <mxCell id="rkeLOa6LP-PtmjB0b2Ty-46" value="InProgress" style="swimlane;fontStyle=0;align=center;verticalAlign=top;childLayout=stackLayout;horizontal=1;startSize=30;horizontalStack=0;resizeParent=1;resizeLast=0;collapsible=1;marginBottom=0;rounded=0;shadow=0;strokeWidth=1;fillColor=#fff2cc;strokeColor=#d6b656;" vertex="1" parent="1">
          <mxGeometry x="1320" y="-1400" width="200" height="120" as="geometry">
            <mxRectangle x="110" y="-20" width="160" height="26" as="alternateBounds" />
          </mxGeometry>
        </mxCell>
        <mxCell id="rkeLOa6LP-PtmjB0b2Ty-47" value="- task: ToDoItem" style="text;align=left;verticalAlign=top;spacingLeft=4;spacingRight=4;overflow=hidden;rotatable=0;points=[[0,0.5],[1,0.5]];portConstraint=eastwest;rounded=0;shadow=0;html=0;" vertex="1" parent="rkeLOa6LP-PtmjB0b2Ty-46">
          <mxGeometry y="30" width="200" height="22" as="geometry" />
        </mxCell>
        <mxCell id="rkeLOa6LP-PtmjB0b2Ty-48" value="" style="line;html=1;strokeWidth=1;align=left;verticalAlign=middle;spacingTop=-1;spacingLeft=3;spacingRight=3;rotatable=0;labelPosition=right;points=[];portConstraint=eastwest;" vertex="1" parent="rkeLOa6LP-PtmjB0b2Ty-46">
          <mxGeometry y="52" width="200" height="8" as="geometry" />
        </mxCell>
        <mxCell id="rkeLOa6LP-PtmjB0b2Ty-49" value="+ togglePause()" style="text;align=left;verticalAlign=top;spacingLeft=4;spacingRight=4;overflow=hidden;rotatable=0;points=[[0,0.5],[1,0.5]];portConstraint=eastwest;rounded=0;shadow=0;html=0;" vertex="1" parent="rkeLOa6LP-PtmjB0b2Ty-46">
          <mxGeometry y="60" width="200" height="22" as="geometry" />
        </mxCell>
        <mxCell id="rkeLOa6LP-PtmjB0b2Ty-50" value="+ finish()" style="text;align=left;verticalAlign=top;spacingLeft=4;spacingRight=4;overflow=hidden;rotatable=0;points=[[0,0.5],[1,0.5]];portConstraint=eastwest;rounded=0;shadow=0;html=0;" vertex="1" parent="rkeLOa6LP-PtmjB0b2Ty-46">
          <mxGeometry y="82" width="200" height="22" as="geometry" />
        </mxCell>
        <mxCell id="rkeLOa6LP-PtmjB0b2Ty-51" style="edgeStyle=orthogonalEdgeStyle;rounded=0;orthogonalLoop=1;jettySize=auto;html=1;endSize=12;startSize=12;endArrow=block;endFill=0;" edge="1" parent="1" source="rkeLOa6LP-PtmjB0b2Ty-52" target="rkeLOa6LP-PtmjB0b2Ty-31">
          <mxGeometry relative="1" as="geometry">
            <Array as="points">
              <mxPoint x="1660" y="-1440" />
              <mxPoint x="1540" y="-1440" />
            </Array>
          </mxGeometry>
        </mxCell>
        <mxCell id="rkeLOa6LP-PtmjB0b2Ty-52" value="Pending" style="swimlane;fontStyle=0;align=center;verticalAlign=top;childLayout=stackLayout;horizontal=1;startSize=30;horizontalStack=0;resizeParent=1;resizeLast=0;collapsible=1;marginBottom=0;rounded=0;shadow=0;strokeWidth=1;fillColor=#fff2cc;strokeColor=#d6b656;" vertex="1" parent="1">
          <mxGeometry x="1560" y="-1400" width="200" height="160" as="geometry">
            <mxRectangle x="110" y="-20" width="160" height="26" as="alternateBounds" />
          </mxGeometry>
        </mxCell>
        <mxCell id="rkeLOa6LP-PtmjB0b2Ty-53" value="- task: ToDoItem" style="text;align=left;verticalAlign=top;spacingLeft=4;spacingRight=4;overflow=hidden;rotatable=0;points=[[0,0.5],[1,0.5]];portConstraint=eastwest;rounded=0;shadow=0;html=0;" vertex="1" parent="rkeLOa6LP-PtmjB0b2Ty-52">
          <mxGeometry y="30" width="200" height="22" as="geometry" />
        </mxCell>
        <mxCell id="rkeLOa6LP-PtmjB0b2Ty-54" value="" style="line;html=1;strokeWidth=1;align=left;verticalAlign=middle;spacingTop=-1;spacingLeft=3;spacingRight=3;rotatable=0;labelPosition=right;points=[];portConstraint=eastwest;" vertex="1" parent="rkeLOa6LP-PtmjB0b2Ty-52">
          <mxGeometry y="52" width="200" height="8" as="geometry" />
        </mxCell>
        <mxCell id="rkeLOa6LP-PtmjB0b2Ty-55" value="+ start()" style="text;align=left;verticalAlign=top;spacingLeft=4;spacingRight=4;overflow=hidden;rotatable=0;points=[[0,0.5],[1,0.5]];portConstraint=eastwest;rounded=0;shadow=0;html=0;" vertex="1" parent="rkeLOa6LP-PtmjB0b2Ty-52">
          <mxGeometry y="60" width="200" height="22" as="geometry" />
        </mxCell>
        <mxCell id="rkeLOa6LP-PtmjB0b2Ty-56" value="+ togglePause()" style="text;align=left;verticalAlign=top;spacingLeft=4;spacingRight=4;overflow=hidden;rotatable=0;points=[[0,0.5],[1,0.5]];portConstraint=eastwest;rounded=0;shadow=0;html=0;" vertex="1" parent="rkeLOa6LP-PtmjB0b2Ty-52">
          <mxGeometry y="82" width="200" height="22" as="geometry" />
        </mxCell>
        <mxCell id="rkeLOa6LP-PtmjB0b2Ty-57" value="+ workedTime(): Duration" style="text;align=left;verticalAlign=top;spacingLeft=4;spacingRight=4;overflow=hidden;rotatable=0;points=[[0,0.5],[1,0.5]];portConstraint=eastwest;rounded=0;shadow=0;html=0;" vertex="1" parent="rkeLOa6LP-PtmjB0b2Ty-52">
          <mxGeometry y="104" width="200" height="22" as="geometry" />
        </mxCell>
        <mxCell id="rkeLOa6LP-PtmjB0b2Ty-58" style="edgeStyle=orthogonalEdgeStyle;rounded=0;orthogonalLoop=1;jettySize=auto;html=1;endSize=12;startSize=12;endArrow=block;endFill=0;" edge="1" parent="1" source="rkeLOa6LP-PtmjB0b2Ty-59" target="rkeLOa6LP-PtmjB0b2Ty-31">
          <mxGeometry relative="1" as="geometry">
            <Array as="points">
              <mxPoint x="1900" y="-1440" />
              <mxPoint x="1540" y="-1440" />
            </Array>
          </mxGeometry>
        </mxCell>
        <mxCell id="rkeLOa6LP-PtmjB0b2Ty-59" value="Finished" style="swimlane;fontStyle=0;align=center;verticalAlign=top;childLayout=stackLayout;horizontal=1;startSize=30;horizontalStack=0;resizeParent=1;resizeLast=0;collapsible=1;marginBottom=0;rounded=0;shadow=0;strokeWidth=1;fillColor=#fff2cc;strokeColor=#d6b656;" vertex="1" parent="1">
          <mxGeometry x="1800" y="-1400" width="200" height="120" as="geometry">
            <mxRectangle x="110" y="-20" width="160" height="26" as="alternateBounds" />
          </mxGeometry>
        </mxCell>
        <mxCell id="rkeLOa6LP-PtmjB0b2Ty-60" value="- task: ToDoItem" style="text;align=left;verticalAlign=top;spacingLeft=4;spacingRight=4;overflow=hidden;rotatable=0;points=[[0,0.5],[1,0.5]];portConstraint=eastwest;rounded=0;shadow=0;html=0;" vertex="1" parent="rkeLOa6LP-PtmjB0b2Ty-59">
          <mxGeometry y="30" width="200" height="22" as="geometry" />
        </mxCell>
        <mxCell id="rkeLOa6LP-PtmjB0b2Ty-61" value="" style="line;html=1;strokeWidth=1;align=left;verticalAlign=middle;spacingTop=-1;spacingLeft=3;spacingRight=3;rotatable=0;labelPosition=right;points=[];portConstraint=eastwest;" vertex="1" parent="rkeLOa6LP-PtmjB0b2Ty-59">
          <mxGeometry y="52" width="200" height="8" as="geometry" />
        </mxCell>
        <mxCell id="rkeLOa6LP-PtmjB0b2Ty-62" value="+ togglePause()" style="text;align=left;verticalAlign=top;spacingLeft=4;spacingRight=4;overflow=hidden;rotatable=0;points=[[0,0.5],[1,0.5]];portConstraint=eastwest;rounded=0;shadow=0;html=0;" vertex="1" parent="rkeLOa6LP-PtmjB0b2Ty-59">
          <mxGeometry y="60" width="200" height="22" as="geometry" />
        </mxCell>
        <mxCell id="rkeLOa6LP-PtmjB0b2Ty-63" value="+ addComment(comment: String)" style="text;align=left;verticalAlign=top;spacingLeft=4;spacingRight=4;overflow=hidden;rotatable=0;points=[[0,0.5],[1,0.5]];portConstraint=eastwest;rounded=0;shadow=0;html=0;" vertex="1" parent="rkeLOa6LP-PtmjB0b2Ty-59">
          <mxGeometry y="82" width="200" height="22" as="geometry" />
        </mxCell>
        <mxCell id="rkeLOa6LP-PtmjB0b2Ty-64" value="task" style="text;html=1;align=center;verticalAlign=middle;whiteSpace=wrap;rounded=0;fontSize=14;" vertex="1" parent="1">
          <mxGeometry x="1560" y="-1710" width="35" height="20" as="geometry" />
        </mxCell>
        <mxCell id="rkeLOa6LP-PtmjB0b2Ty-65" value="1" style="text;html=1;align=center;verticalAlign=middle;whiteSpace=wrap;rounded=0;fontSize=14;" vertex="1" parent="1">
          <mxGeometry x="1605" y="-1710" width="30" height="20" as="geometry" />
        </mxCell>
        <mxCell id="rkeLOa6LP-PtmjB0b2Ty-66" value="&lt;font size=&quot;1&quot; style=&quot;&quot;&gt;&lt;b style=&quot;&quot;&gt;&lt;i style=&quot;font-size: 14px;&quot;&gt;State&lt;/i&gt;&lt;/b&gt;&lt;/font&gt;" style="text;html=1;align=center;verticalAlign=middle;whiteSpace=wrap;rounded=0;" vertex="1" parent="1">
          <mxGeometry x="1420" y="-1680" width="40" height="20" as="geometry" />
        </mxCell>
        <mxCell id="rkeLOa6LP-PtmjB0b2Ty-67" value="&lt;font size=&quot;1&quot; style=&quot;&quot;&gt;&lt;b style=&quot;&quot;&gt;&lt;i style=&quot;font-size: 12px;&quot;&gt;Concrete State&lt;/i&gt;&lt;/b&gt;&lt;/font&gt;" style="text;html=1;align=center;verticalAlign=middle;whiteSpace=wrap;rounded=0;" vertex="1" parent="1">
          <mxGeometry x="1080" y="-1420" width="90" height="20" as="geometry" />
        </mxCell>
        <mxCell id="rkeLOa6LP-PtmjB0b2Ty-68" value="&lt;font size=&quot;1&quot; style=&quot;&quot;&gt;&lt;b style=&quot;&quot;&gt;&lt;i style=&quot;font-size: 12px;&quot;&gt;Concrete State&lt;/i&gt;&lt;/b&gt;&lt;/font&gt;" style="text;html=1;align=center;verticalAlign=middle;whiteSpace=wrap;rounded=0;" vertex="1" parent="1">
          <mxGeometry x="1320" y="-1420" width="90" height="20" as="geometry" />
        </mxCell>
        <mxCell id="rkeLOa6LP-PtmjB0b2Ty-69" value="&lt;font size=&quot;1&quot; style=&quot;&quot;&gt;&lt;b style=&quot;&quot;&gt;&lt;i style=&quot;font-size: 12px;&quot;&gt;Concrete State&lt;/i&gt;&lt;/b&gt;&lt;/font&gt;" style="text;html=1;align=center;verticalAlign=middle;whiteSpace=wrap;rounded=0;" vertex="1" parent="1">
          <mxGeometry x="1560" y="-1420" width="90" height="20" as="geometry" />
        </mxCell>
        <mxCell id="rkeLOa6LP-PtmjB0b2Ty-70" value="&lt;font size=&quot;1&quot; style=&quot;&quot;&gt;&lt;b style=&quot;&quot;&gt;&lt;i style=&quot;font-size: 12px;&quot;&gt;Concrete State&lt;/i&gt;&lt;/b&gt;&lt;/font&gt;" style="text;html=1;align=center;verticalAlign=middle;whiteSpace=wrap;rounded=0;" vertex="1" parent="1">
          <mxGeometry x="1800" y="-1420" width="90" height="20" as="geometry" />
        </mxCell>
        <mxCell id="rkeLOa6LP-PtmjB0b2Ty-71" value="&lt;font size=&quot;1&quot; style=&quot;&quot;&gt;&lt;b style=&quot;&quot;&gt;&lt;i style=&quot;font-size: 14px;&quot;&gt;Context&lt;/i&gt;&lt;/b&gt;&lt;/font&gt;" style="text;html=1;align=center;verticalAlign=middle;whiteSpace=wrap;rounded=0;" vertex="1" parent="1">
          <mxGeometry x="1357.5" y="-2060" width="70" height="20" as="geometry" />
        </mxCell>
      </root>
    </mxGraphModel>
  </diagram>
</mxfile>
